<svg width="28" height="30" viewBox="0 0 28 30" fill="none" xmlns="http://www.w3.org/2000/svg">
<g filter="url(#filter0_d)">
<path d="M4 8.56249V7.93749C4 7.41972 4.41973 6.99999 4.9375 6.99999H19V5.12499C19 4.29034 20.0117 3.87335 20.6004 4.46206L23.7254 7.58706C24.0915 7.95319 24.0915 8.54679 23.7254 8.91288L20.6004 12.0379C20.0139 12.6243 19 12.2131 19 11.375V9.49999H4.9375C4.41973 9.49999 4 9.08026 4 8.56249ZM23.0625 14.5H9V12.625C9 11.7924 7.98977 11.3719 7.39957 11.9621L4.27457 15.0871C3.90848 15.4532 3.90848 16.0468 4.27457 16.4129L7.39957 19.5379C7.9866 20.1249 9 19.7124 9 18.875V17H23.0625C23.5803 17 24 16.5803 24 16.0625V15.4375C24 14.9197 23.5803 14.5 23.0625 14.5Z" fill="black" fill-opacity="0.5413"/>
</g>
<defs>
<filter id="filter0_d" x="0" y="2" width="28" height="28" filterUnits="userSpaceOnUse" color-interpolation-filters="sRGB">
<feFlood flood-opacity="0" result="BackgroundImageFix"/>
<feColorMatrix in="SourceAlpha" type="matrix" values="0 0 0 0 0 0 0 0 0 0 0 0 0 0 0 0 0 0 127 0"/>
<feOffset dy="4"/>
<feGaussianBlur stdDeviation="2"/>
<feColorMatrix type="matrix" values="0 0 0 0 0 0 0 0 0 0 0 0 0 0 0 0 0 0 0.25 0"/>
<feBlend mode="normal" in2="BackgroundImageFix" result="effect1_dropShadow"/>
<feBlend mode="normal" in="SourceGraphic" in2="effect1_dropShadow" result="shape"/>
</filter>
</defs>
</svg>
